<svg width="32" height="32" viewBox="0 0 32 32" fill="none" xmlns="http://www.w3.org/2000/svg">
<path d="M30.48 7.62493H1.53V3.05493H0V28.9549H1.53V9.14493H30.48V28.9549H32V3.05493H30.48V7.62493Z" fill="#46FF84"/>
<path d="M1.53 28.9548H30.48V30.4748H1.53V28.9548Z" fill="#46FF84"/>
<path d="M25.91 19.8149H27.43V24.3849H25.91V19.8149Z" fill="#46FF84"/>
<path d="M24.38 24.385H25.91V25.905H24.38V24.385Z" fill="#46FF84"/>
<path d="M24.38 18.2849H25.91V19.8149H24.38V18.2849Z" fill="#46FF84"/>
<path d="M19.81 25.9048H24.38V27.4348H19.81V25.9048Z" fill="#46FF84"/>
<path d="M24.38 18.2848V16.7648H22.86V10.6748H4.57001V19.8148H7.62001V18.2848H6.10001V12.1948H21.34V16.7648H19.81V18.2848H24.38Z" fill="#46FF84"/>
<path d="M18.29 24.385H19.81V25.905H18.29V24.385Z" fill="#46FF84"/>
<path d="M18.29 18.2849H19.81V19.8149H18.29V18.2849Z" fill="#46FF84"/>
<path d="M16.76 19.8149H18.29V24.3849H16.76V19.8149Z" fill="#46FF84"/>
<path d="M9.14001 4.57495H10.67V6.09495H9.14001V4.57495Z" fill="#46FF84"/>
<path d="M6.10001 21.3349V22.8649H4.57001V24.3849H15.24V19.8149H13.72V18.2849H12.19V16.7649H10.67V18.2849H9.14001V19.8149H7.62001V21.3349H6.10001Z" fill="#46FF84"/>
<path d="M6.10001 4.57495H7.62001V6.09495H6.10001V4.57495Z" fill="#46FF84"/>
<path d="M3.04999 4.57495H4.56999V6.09495H3.04999V4.57495Z" fill="#46FF84"/>
<path d="M1.53 1.5249H30.48V3.0549H1.53V1.5249Z" fill="#46FF84"/>
</svg>
