<svg width="32" height="32" viewBox="0 0 32 32" fill="none" xmlns="http://www.w3.org/2000/svg">
<g clip-path="url(#clip0_7849_381)">
<path d="M30.47 3.05005V10.67H19.81V12.19H21.33V13.71H22.85V12.19H30.47V28.9501H32V3.05005H30.47Z" fill="#46FF84"/>
<path d="M28.95 28.95H30.47V30.4799H28.95V28.95Z" fill="#46FF84"/>
<path d="M28.95 1.52002H30.47V3.05002H28.95V1.52002Z" fill="#46FF84"/>
<path d="M3.04001 30.48H28.95V32H3.04001V30.48Z" fill="#46FF84"/>
<path d="M25.9 4.57007H27.42V7.62007H25.9V4.57007Z" fill="#46FF84"/>
<path d="M22.85 3.05005H25.9V4.57005H22.85V3.05005Z" fill="#46FF84"/>
<path d="M22.85 13.71H24.38V21.33H22.85V13.71Z" fill="#46FF84"/>
<path d="M22.85 7.62012H25.9V9.14012H22.85V7.62012Z" fill="#46FF84"/>
<path d="M21.33 21.3301H22.85V22.8601H21.33V21.3301Z" fill="#46FF84"/>
<path d="M21.33 4.57007H22.85V7.62007H21.33V4.57007Z" fill="#46FF84"/>
<path d="M19.81 22.8601H21.33V24.3801H19.81V22.8601Z" fill="#46FF84"/>
<path d="M12.19 15.2399H10.66V19.8099H12.19V21.3299H13.71V22.8599H18.28V21.3299H19.81V19.8099H21.33V15.2399H19.81V13.7099H18.28V12.1899H13.71V13.7099H12.19V15.2399ZM15.23 15.2399H18.28V18.2899H16.76V16.7599H15.23V15.2399Z" fill="#46FF84"/>
<path d="M12.19 9.13989H19.81V10.6699H12.19V9.13989Z" fill="#46FF84"/>
<path d="M12.19 24.3799H19.81V25.8999H12.19V24.3799Z" fill="#46FF84"/>
<path d="M10.66 22.8601H12.19V24.3801H10.66V22.8601Z" fill="#46FF84"/>
<path d="M9.14001 21.3301H10.66V22.8601H9.14001V21.3301Z" fill="#46FF84"/>
<path d="M7.60999 13.71H9.13999V21.33H7.60999V13.71Z" fill="#46FF84"/>
<path d="M1.51999 28.95H3.03999V30.4799H1.51999V28.95Z" fill="#46FF84"/>
<path d="M1.52 12.19H3.04V13.71H7.61V12.19H9.14V13.71H10.66V12.19H12.19V10.67H10.66V1.52H28.95V0H3.04V1.52H1.52V3.05H3.04V10.67H1.52V3.05H0V28.95H1.52V12.19ZM7.61 1.52H9.14V10.67H7.61V1.52ZM4.57 1.52H6.09V10.67H4.57V1.52Z" fill="#46FF84"/>
</g>
<defs>
<clipPath id="clip0_7849_381">
<rect width="32" height="32" fill="white"/>
</clipPath>
</defs>
</svg>
