<svg width="32" height="32" viewBox="0 0 32 32" fill="none" xmlns="http://www.w3.org/2000/svg">
<path d="M28.955 25.8999H30.475V28.9499H28.955V25.8999Z" fill="#46FF84"/>
<path d="M25.905 24.3799H28.955V25.8999H25.905V24.3799Z" fill="#46FF84"/>
<path d="M25.905 28.95H28.955V30.4699H25.905V28.95Z" fill="#46FF84"/>
<path d="M22.855 22.8501H25.905V24.3801H22.855V22.8501Z" fill="#46FF84"/>
<path d="M24.385 6.09009H25.905V13.7101H24.385V6.09009Z" fill="#46FF84"/>
<path d="M6.095 30.47H25.905V32H6.095V30.47Z" fill="#46FF84"/>
<path d="M22.855 13.71H24.385V18.28H22.855V13.71Z" fill="#46FF84"/>
<path d="M22.855 3.04004H24.385V6.09004H22.855V3.04004Z" fill="#46FF84"/>
<path d="M21.335 18.28H22.855V21.33H21.335V18.28Z" fill="#46FF84"/>
<path d="M19.815 21.3301H21.335V24.3801H19.815V21.3301Z" fill="#46FF84"/>
<path d="M19.815 1.52002H22.855V3.04002H19.815V1.52002Z" fill="#46FF84"/>
<path d="M18.285 24.3799H19.815V25.8999H18.285V24.3799Z" fill="#46FF84"/>
<path d="M18.285 6.09009H19.815V7.61009H18.285V6.09009Z" fill="#46FF84"/>
<path d="M16.765 25.8999H18.285V27.4199H16.765V25.8999Z" fill="#46FF84"/>
<path d="M15.235 27.4199H16.765V28.9499H15.235V27.4199Z" fill="#46FF84"/>
<path d="M13.715 25.8999H15.235V27.4199H13.715V25.8999Z" fill="#46FF84"/>
<path d="M12.195 0H19.815V1.52H12.195V0Z" fill="#46FF84"/>
<path d="M12.195 24.3799H13.715V25.8999H12.195V24.3799Z" fill="#46FF84"/>
<path d="M12.195 13.7101H13.715V15.2301H18.285V13.7101H19.815V12.1901H21.335V7.61007H19.815V10.6601H18.285V7.61007H16.765V6.09007H18.285V4.57007H13.715V6.09007H12.195V7.61007H10.665V12.1901H12.195V13.7101Z" fill="#46FF84"/>
<path d="M10.665 21.3301H12.195V24.3801H10.665V21.3301Z" fill="#46FF84"/>
<path d="M9.14499 1.52002H12.195V3.04002H9.14499V1.52002Z" fill="#46FF84"/>
<path d="M9.14499 18.28H10.665V21.33H9.14499V18.28Z" fill="#46FF84"/>
<path d="M6.095 22.8501H9.145V24.3801H6.095V22.8501Z" fill="#46FF84"/>
<path d="M7.61499 13.71H9.14499V18.28H7.61499V13.71Z" fill="#46FF84"/>
<path d="M7.61499 3.04004H9.14499V6.09004H7.61499V3.04004Z" fill="#46FF84"/>
<path d="M6.095 6.09009H7.615V13.7101H6.095V6.09009Z" fill="#46FF84"/>
<path d="M3.04498 28.95H6.09498V30.4699H3.04498V28.95Z" fill="#46FF84"/>
<path d="M3.04498 24.3799H6.09498V25.8999H3.04498V24.3799Z" fill="#46FF84"/>
<path d="M1.52499 25.8999H3.04499V28.9499H1.52499V25.8999Z" fill="#46FF84"/>
</svg>
