<svg width="32" height="32" viewBox="0 0 32 32" fill="none" xmlns="http://www.w3.org/2000/svg">
<path d="M24.38 10.67H22.86V3.05005H21.33V16.76H22.86V12.19H24.38V18.29H25.9V9.15005H24.38V10.67Z" fill="#46FF84"/>
<path d="M22.86 18.29H24.38V19.81H22.86V18.29Z" fill="#46FF84"/>
<path d="M21.33 19.8101H22.86V21.3401H21.33V19.8101Z" fill="#46FF84"/>
<path d="M19.81 16.76H21.33V18.29H19.81V16.76Z" fill="#46FF84"/>
<path d="M19.81 1.53003H21.33V3.05003H19.81V1.53003Z" fill="#46FF84"/>
<path d="M10.67 21.3401V22.8601H15.24V27.4301H10.67V28.9601H7.62V32.0001H24.38V28.9601H21.33V27.4301H16.76V22.8601H21.33V21.3401H10.67Z" fill="#46FF84"/>
<path d="M18.29 7.62012H19.81V9.15012H18.29V7.62012Z" fill="#46FF84"/>
<path d="M18.29 4.57007H19.81V6.10007H18.29V4.57007Z" fill="#46FF84"/>
<path d="M12.19 18.29H19.81V19.81H12.19V18.29Z" fill="#46FF84"/>
<path d="M15.24 9.1499H16.76V10.6699H15.24V9.1499Z" fill="#46FF84"/>
<path d="M15.24 6.1001H16.76V7.6201H15.24V6.1001Z" fill="#46FF84"/>
<path d="M15.24 3.05005H16.76V4.57005H15.24V3.05005Z" fill="#46FF84"/>
<path d="M12.19 0H19.81V1.53H12.19V0Z" fill="#46FF84"/>
<path d="M12.19 7.62012H13.71V9.15012H12.19V7.62012Z" fill="#46FF84"/>
<path d="M12.19 4.57007H13.71V6.10007H12.19V4.57007Z" fill="#46FF84"/>
<path d="M10.67 16.76H12.19V18.29H10.67V16.76Z" fill="#46FF84"/>
<path d="M10.67 1.53003H12.19V3.05003H10.67V1.53003Z" fill="#46FF84"/>
<path d="M9.14001 19.8101H10.67V21.3401H9.14001V19.8101Z" fill="#46FF84"/>
<path d="M7.62 18.29H9.14V19.81H7.62V18.29Z" fill="#46FF84"/>
<path d="M7.62001 12.19H9.14001V16.76H10.67V3.05005H9.14001V10.67H7.62001V9.15005H6.10001V18.29H7.62001V12.19Z" fill="#46FF84"/>
</svg>
