<svg width="32" height="32" viewBox="0 0 32 32" fill="none" xmlns="http://www.w3.org/2000/svg">
<g clip-path="url(#clip0_7849_472)">
<path d="M27.432 4.5752H28.952V30.4752H27.432V4.5752Z" fill="#46FF84"/>
<path d="M25.902 3.04517H27.432V4.57517H25.902V3.04517Z" fill="#46FF84"/>
<path d="M24.382 1.52515H25.902V3.04515H24.382V1.52515Z" fill="#46FF84"/>
<path d="M25.9 7.61517H24.38V6.10017H22.86V4.57517H21.33V3.04517H3.052V32.0002H25.9V7.61517ZM24.38 30.4752H4.572V4.57517H18.282V10.6652H24.382L24.38 30.4752Z" fill="#46FF84"/>
<path d="M4.57199 -0.00488281H24.382V1.52512H4.57199V-0.00488281Z" fill="#46FF84"/>
<path d="M7.62201 25.905H21.332V27.425H7.62201V25.905Z" fill="#46FF84"/>
<path d="M7.62201 19.8052H21.332V21.3352H7.62201V19.8052Z" fill="#46FF84"/>
<path d="M7.62201 13.7151H21.332V15.2351H7.62201V13.7151Z" fill="#46FF84"/>
<path d="M7.62201 7.61523H13.712V9.14524H7.62201V7.61523Z" fill="#46FF84"/>
</g>
<defs>
<clipPath id="clip0_7849_472">
<rect width="32" height="32" fill="white"/>
</clipPath>
</defs>
</svg>
